<svg width="1536" height="546" viewBox="0 0 1536 546" fill="none" xmlns="http://www.w3.org/2000/svg">
<path opacity="0.8" fill-rule="evenodd" clip-rule="evenodd" d="M859.198 446.013C1046.98 382.754 1280.5 278 1536 278V280.583C1281.03 280.57 1048.07 385.128 860.219 448.399C828.176 459.194 796.494 469.865 764.826 479.889C655.363 514.542 546.102 541.45 422.716 538.823C300.293 536.216 164.068 504.535 0 422.658L4.58227e-05 419.744C164.342 501.953 300.541 533.658 422.781 536.261C545.677 538.878 654.571 512.084 763.924 477.465C795.529 467.461 827.169 456.802 859.198 446.013Z" fill="url(#paint0_linear)"/>
<path opacity="0.9" fill-rule="evenodd" clip-rule="evenodd" d="M1176.18 372.467C1293.52 345.256 1401.34 326.972 1532.1 347.154L1532 357.5C1402.69 337.237 1296.06 355.229 1179.13 382.347C1119.33 396.215 1060.24 413.578 1000.81 431.686C988.483 435.444 976.134 439.234 963.757 443.032C916.565 457.519 869.03 472.112 820.786 485.382C698.956 518.897 572.114 544.136 432.86 538.405C301.457 532.996 159.319 500.025 0.100586 420.839L0.212886 409.182C160.237 489.65 302.398 522.813 433.364 528.204C570.699 533.857 696.078 508.988 817.345 475.629C865.392 462.413 912.703 447.89 959.873 433.41C972.264 429.605 984.655 425.803 997.039 422.028C1056.51 403.907 1115.94 386.439 1176.18 372.467Z" fill="url(#paint1_linear)"/>
<path opacity="0.95" fill-rule="evenodd" clip-rule="evenodd" d="M891.451 424.747C1158.39 325.419 1394.77 155.264 1532 38V40.4698C1394.46 157.788 1158.56 327.298 892.208 426.407C601.762 534.485 274.9 572.48 0 353.941C0 353.941 5.76393 358.838 0.000599689 354.001L0.000100107 351.548C274.38 570.577 600.907 532.861 891.451 424.747Z" fill="url(#paint2_linear)"/>
<path opacity="0.95" fill-rule="evenodd" clip-rule="evenodd" d="M1472.88 62.1618C1499.5 37.5096 1519.66 16.4145 1532.41 0.5V9.2972C1519.35 24.8128 1500.51 44.1819 1476.72 66.203C1440.7 99.549 1393.16 139.146 1336.69 180.932C1223.75 264.499 1075.01 356.892 911.221 425.546C616.256 549.188 271.674 606.791 0.0480633 385.221L0.0473633 377.807C5.80085 382.871 0.0482635 378 0.0482635 378C269.892 600.972 613.488 544.325 909.023 420.445C1072.3 352.004 1220.65 259.863 1333.31 176.499C1389.64 134.819 1437.03 95.351 1472.88 62.1618Z" fill="url(#paint3_linear)"/>
<path opacity="0.9" fill-rule="evenodd" clip-rule="evenodd" d="M1183.56 310.311C1305.41 265.866 1422.34 232.854 1533 238.664V257.481C1426.56 251.628 1312.66 283.358 1190.69 327.841C1146.42 343.986 1101 361.857 1054.58 380.116C971.983 412.609 886.26 446.332 798.396 473.744C660.657 516.717 515.781 544.885 364.568 529.964C246.379 518.301 124.769 480.361 0.000100136 403.219L0 380.684C126.121 460.896 248.374 499.61 366.626 511.279C513.953 525.816 655.81 498.449 792.182 455.902C879.474 428.669 963.759 395.501 1045.8 363.218C1092.39 344.88 1138.27 326.828 1183.56 310.311Z" fill="url(#paint4_linear)"/>
<path opacity="0.95" fill-rule="evenodd" clip-rule="evenodd" d="M1441.44 163.075C1473.62 147.19 1503.19 134.089 1529.84 124.929V130.005C1503.93 139.028 1475.11 151.812 1443.65 167.348C1398.25 189.759 1347.49 217.82 1292.15 248.416L1292 248.501C1181.39 309.65 1055.76 366.922 915.656 422.901C637.966 533.852 315.354 585.178 1.0004 379.847L1 374.086C314.277 580.226 636.02 529.46 913.807 418.47C1053.63 362.606 1179.03 305.458 1289.69 244.279L1289.74 244.249C1345.06 213.669 1395.93 185.547 1441.44 163.075Z" fill="url(#paint5_linear)"/>
<path opacity="0.95" fill-rule="evenodd" clip-rule="evenodd" d="M951.609 455.528C1141.96 402.39 1326.8 353.732 1533 401.429V402.057V402.037C1326.96 354.329 1142.26 402.944 951.855 456.094C922.013 464.424 892.048 472.788 861.872 480.883C732.132 515.683 598.511 545.482 454.213 545.993C315.085 546.486 166.05 519.753 1.00048 444.053L1 443.365C166.084 519.142 315.111 545.886 454.21 545.394C598.389 544.883 731.921 515.109 861.644 480.313C891.809 472.221 921.769 463.858 951.609 455.528Z" fill="url(#paint6_linear)"/>
<defs>
<linearGradient id="paint0_linear" x1="1680.59" y1="611.954" x2="1693.08" y2="227.263" gradientUnits="userSpaceOnUse">
<stop stop-color="#A9173A"/>
<stop offset="0.651042" stop-color="#675AFE"/>
</linearGradient>
<linearGradient id="paint1_linear" x1="1771.68" y1="707.473" x2="1810.01" y2="271.98" gradientUnits="userSpaceOnUse">
<stop stop-color="#A9173A"/>
<stop offset="0.651042" stop-color="#675AFE"/>
</linearGradient>
<linearGradient id="paint2_linear" x1="1664.4" y1="634.667" x2="1705.33" y2="-35.6763" gradientUnits="userSpaceOnUse">
<stop stop-color="#A9173A"/>
<stop offset="0.651042" stop-color="#675AFE"/>
</linearGradient>
<linearGradient id="paint3_linear" x1="1676.66" y1="684.297" x2="1728.95" y2="-100.735" gradientUnits="userSpaceOnUse">
<stop stop-color="#A9173A"/>
<stop offset="0.651042" stop-color="#675AFE"/>
</linearGradient>
<linearGradient id="paint4_linear" x1="1690.33" y1="679.008" x2="1730.7" y2="173.515" gradientUnits="userSpaceOnUse">
<stop stop-color="#A9173A"/>
<stop offset="0.651042" stop-color="#675AFE"/>
<stop offset="0.884254" stop-color="#3A30B2"/>
</linearGradient>
<linearGradient id="paint5_linear" x1="1577.88" y1="662.679" x2="1622.93" y2="45.1758" gradientUnits="userSpaceOnUse">
<stop stop-color="#A9173A"/>
<stop offset="0.651042" stop-color="#675AFE"/>
</linearGradient>
<linearGradient id="paint6_linear" x1="1816.67" y1="697.696" x2="1846.48" y2="289.586" gradientUnits="userSpaceOnUse">
<stop stop-color="#F61B84"/>
<stop offset="0.651042" stop-color="#675AFE"/>
</linearGradient>
</defs>
</svg>